<?xml version="1.0" encoding="UTF-8" standalone="no"?>
<!-- Created with Inkscape (http://www.inkscape.org/) -->

<svg
   xmlns:dc="http://purl.org/dc/elements/1.1/"
   xmlns:cc="http://creativecommons.org/ns#"
   xmlns:rdf="http://www.w3.org/1999/02/22-rdf-syntax-ns#"
   xmlns:svg="http://www.w3.org/2000/svg"
   xmlns="http://www.w3.org/2000/svg"
   xmlns:sodipodi="http://sodipodi.sourceforge.net/DTD/sodipodi-0.dtd"
   xmlns:inkscape="http://www.inkscape.org/namespaces/inkscape"
   width="508mm"
   height="304.8mm"
   viewBox="0 0 508 304.8"
   version="1.1"
   id="svg8"
   inkscape:version="0.92.2 (5c3e80d, 2017-08-06)"
   sodipodi:docname="80mmWshake.svg">
  <defs
     id="defs2" />
  <sodipodi:namedview
     id="base"
     pagecolor="#ffffff"
     bordercolor="#666666"
     borderopacity="1.0"
     inkscape:pageopacity="0.0"
     inkscape:pageshadow="2"
     inkscape:zoom="1.511676"
     inkscape:cx="16.97169"
     inkscape:cy="156.049"
     inkscape:document-units="mm"
     inkscape:current-layer="layer1"
     showgrid="false"
     inkscape:pagecheckerboard="false"
     showborder="true"
     borderlayer="false"
     inkscape:window-width="1920"
     inkscape:window-height="1001"
     inkscape:window-x="-9"
     inkscape:window-y="-9"
     inkscape:window-maximized="1"
     showguides="true"
     inkscape:guide-bbox="true">
    <sodipodi:guide
       position="100,0"
       orientation="1,0"
       id="guide4929"
       inkscape:locked="false"
       inkscape:label=""
       inkscape:color="rgb(0,0,255)" />
    <sodipodi:guide
       position="50.12377,10"
       orientation="0,1"
       id="guide4931"
       inkscape:locked="false"
       inkscape:label=""
       inkscape:color="rgb(0,0,255)" />
    <sodipodi:guide
       position="-7.613651,0"
       orientation="0,1"
       id="guide4933"
       inkscape:locked="false"
       inkscape:label=""
       inkscape:color="rgb(0,0,255)" />
  </sodipodi:namedview>
  <metadata
     id="metadata5">
    <rdf:RDF>
      <cc:Work
         rdf:about="">
        <dc:format>image/svg+xml</dc:format>
        <dc:type
           rdf:resource="http://purl.org/dc/dcmitype/StillImage" />
        <dc:title />
      </cc:Work>
    </rdf:RDF>
  </metadata>
  <g
     inkscape:label="Layer 1"
     inkscape:groupmode="layer"
     id="layer1"
     transform="translate(0,7.8)">
    <path
       id="path4989"
       style="fill:none;stroke:#000000;stroke-width:0.2645833px;stroke-linecap:butt;stroke-linejoin:miter;stroke-opacity:1"
       d="m 0.0640104,276.8485 v 9.9999 m 0,-30 1.11e-5,10.0002 m 0,-30.0001 v 10 m 99.8714985,-10 v -10 m -3e-5,29.9999 3e-5,-9.9999 m -3e-5,30 3e-5,-9.9999 m -3e-5,29.9998 v -10 M 0.0640326,226.8485 17.27257,217.1518 l 15.96479,9.6967 16.88606,-9.6967 15.6549,9.6967 17.12535,-9.6967 17.03186,9.6967 m -99.8715085,10 17.2085385,-9.6967 15.96479,9.6967 16.88606,-9.6967 15.6549,9.6967 17.12535,-9.6967 17.03186,9.6967 m -99.8714985,10 17.2085385,-9.6967 15.96479,9.6967 16.88606,-9.6967 15.6549,9.6967 17.12535,-9.6967 17.03186,9.6967 m -99.8715096,10 17.2085396,-9.6967 15.96479,9.6967 16.88606,-9.6967 15.6549,9.6967 17.12535,-9.6967 17.03186,9.6967 m -99.8714885,10 17.2085385,-9.6967 15.96479,9.6967 16.88606,-9.6967 15.6549,9.6967 17.12535,-9.6967 17.03186,9.6967 m -99.8715096,10 17.2085396,-9.6967 15.96479,9.6967 16.88606,-9.6967 15.6549,9.6967 17.12535,-9.6967 17.03186,9.6967 m -99.8714996,9.9999 17.2085396,-9.6966 15.96479,9.6967 16.88606,-9.6967 15.6549,9.6967 17.12535,-9.6967 17.03186,9.6967 m -99.8715107,10 17.2085407,-9.6967 15.96479,9.6967 16.88606,-9.6967 15.6549,9.6967 17.12535,-9.6967 17.03186,9.6967" />
  </g>
</svg>
